<svg xmlns="http://www.w3.org/2000/svg" viewBox="0 0 406.35 406.28"><g id="Laag_2" data-name="Laag 2"><g id="Laag_1-2" data-name="Laag 1"><path d="M297.68,189.8q-.87,68.22-1.88,136.44c-.12,8-1.86,9.39-9.72,9.83-37.61,2.12-75.23,3.53-112.9,1.82-18.8-.85-37.6-2-56.39-3-5.09-.29-6.64-2.16-6.67-7.83q-.2-50-.35-100,0-19,0-38c0-9.22,0-10.32,7.23-11.93H258.56c0-14.35.21-43.3-.1-58.07a87.11,87.11,0,0,0-2.2-19.29c-5.76-23-22.82-37.23-47.71-40.64-27.32-3.74-54.83,15.51-57.62,42-1,9.41-1.44,22-1.73,34.86H121c.28-14.44.74-29.38,2.17-39.75,5.84-42.65,45.25-68.73,85.11-65.8C245.2,33.18,273.86,56,283,90.44c3.19,12.06,3.48,25,4.2,37.55.67,11.61.15,37.46.15,49.4,10.4,1.93,10.51,1.94,10.38,12.41m108.67,13.52C406.47,91.26,315.76.17,203.89,0,91.45-.17.25,90.42,0,202.51-.25,315.06,90.6,406.23,203.05,406.28a202.86,202.86,0,0,0,203.3-203"/></g></g></svg>