<?xml version="1.0" encoding="utf-8"?>
<!-- Generator: Adobe Illustrator 26.0.2, SVG Export Plug-In . SVG Version: 6.00 Build 0)  -->
<svg version="1.1" id="Laag_1" xmlns="http://www.w3.org/2000/svg" xmlns:xlink="http://www.w3.org/1999/xlink" x="0px" y="0px"
	 viewBox="0 0 100 99.4" style="enable-background:new 0 0 100 99.4;" xml:space="preserve">
<style type="text/css">
	.st0{fill:#DFDCD8;}
</style>
<g id="Laag_2_00000094600722556591252530000000210460498107083965_">
	<g id="Laag_1-2">
		<g>
			<g>
				<path class="st0" d="M68.3,55.7c0.1-0.7,0.2-1.5,0.3-2.2c0-0.6-0.1-1.1-0.1-1.7c-0.1-0.6-0.3-1.2-0.4-1.8
					c-0.2-0.7-0.6-1.4-1.1-2c-1-1.2-2.5-1.8-4.1-1.7c-0.8,0.1-1.6,0.3-2.3,0.8c-1.1,0.8-1.9,2-2.2,3.3c-0.2,0.7-0.3,1.4-0.3,2.1
					c-0.2,1.7,0.1,3.4,0.9,5c0.9,1.9,3,3.1,5.1,2.8c1.2-0.1,2.2-0.6,3-1.5C67.6,57.9,68.1,56.9,68.3,55.7 M92.2,50h-3.4
					c-0.4,0-0.4,0-0.5-0.4c-0.2-1.2-0.9-2.2-2-2.8c-1-0.5-2-0.7-3.1-0.5c-1.5,0.2-2.8,1.1-3.5,2.4c-0.5,1-0.8,2.1-0.9,3.2
					c-0.1,0.9-0.1,1.9,0,2.8c0.1,1.1,0.4,2.1,0.9,3c0.4,0.8,1,1.4,1.7,1.9c0.8,0.5,1.6,0.7,2.5,0.6c0.8,0,1.5-0.2,2.2-0.6
					c0.7-0.4,1.2-1,1.6-1.8c0.3-0.6,0.5-1.2,0.6-1.8c0-0.2,0.1-0.3,0.3-0.3c0,0,0,0,0,0h3.6c0.2,0,0.3,0.1,0.2,0.3
					c-0.1,0.4-0.1,0.8-0.2,1.2c-0.2,0.7-0.4,1.3-0.7,2c-0.6,1.3-1.5,2.3-2.6,3.1c-1.4,0.9-2.9,1.4-4.6,1.4c-1.1,0.1-2.1,0-3.2-0.3
					c-1.3-0.3-2.5-0.9-3.5-1.8c-0.9-0.8-1.6-1.7-2.1-2.8c-0.8-1.7-1.2-3.7-1.1-5.6c0-1.1,0.2-2.3,0.5-3.4c0.5-2.1,1.6-4,3.3-5.3
					c0.8-0.6,1.7-1.1,2.7-1.3c1.5-0.4,3.1-0.5,4.6-0.3c1.8,0.2,3.4,0.9,4.7,2.1c0.9,0.8,1.5,1.8,1.9,3c0.2,0.5,0.3,1,0.4,1.6
					C92.6,49.9,92.6,50,92.2,50 M72.2,57.6c-0.4,1.6-1.3,3-2.5,4.2c-0.6,0.5-1.3,1-2,1.3c-1.4,0.5-2.8,0.7-4.3,0.6
					c-1,0-1.9-0.3-2.8-0.6c-1.1-0.4-2-1.2-2.5-2.2c-0.1-0.1-0.1-0.1-0.2-0.2c0,0.1-0.1,0.2-0.1,0.3c0,0.6,0,1.3,0,1.9
					c0,0.3,0,0.4-0.4,0.4h-3.3c-0.3,0-0.3,0-0.3-0.3V37.6c0-0.4,0-0.8,0-1.2c0-0.1,0-0.2,0-0.3h-0.1l-0.4,0.8l-2.3,4.2
					c-0.6,1.1-1.2,2.3-1.8,3.4S47.7,47,47,48.3l-1.8,3.4l-1.8,3.4c-0.5,1-1.1,2-1.7,3l-1.7,3c-0.3,0.5-0.6,1.1-0.9,1.6
					c-0.1,0.2-0.3,0.4-0.6,0.4H7.7c-0.1,0-0.2,0-0.3-0.1c0-0.1,0.1-0.2,0.1-0.3l1.2-2.3l1.7-3.1l1.4-2.7l1.6-3l1.5-2.7l1.7-3.1
					l1.6-3l1.5-2.7l1.6-3.1c0.2-0.4,0.4-0.7,0.6-1.1c0.1-0.1,0.2-0.2,0.4-0.2c0.1,0,0.3,0,0.5,0h34.9c0.4,0,0.4,0,0.4,0.4v9.4
					c0,0.1,0,0.2,0.1,0.3c0.1,0,0.1-0.1,0.2-0.2c0.7-1,1.6-1.7,2.7-2.2c3.8-1.6,8.2-0.1,10.3,3.5c0.9,1.7,1.5,3.7,1.5,5.7
					C72.9,54.4,72.7,56.1,72.2,57.6 M100,26.1C99.5,11.5,87.6,0,73,0H27C12.1,0,0,12.1,0,27v45.4c0,13.5,10,24.9,23.4,26.7
					c17.8,0.3,35.5,0.4,53.3,0c13-1.8,22.9-12.6,23.3-25.8C100.1,57.6,100.1,41.8,100,26.1"/>
			</g>
		</g>
	</g>
</g>
</svg>
