<?xml version="1.0" encoding="utf-8"?>
<!-- Generator: Adobe Illustrator 26.0.2, SVG Export Plug-In . SVG Version: 6.00 Build 0)  -->
<svg version="1.1" id="Laag_1" xmlns="http://www.w3.org/2000/svg" xmlns:xlink="http://www.w3.org/1999/xlink" x="0px" y="0px"
	 viewBox="0 0 406.3 406.3" style="enable-background:new 0 0 406.3 406.3;" xml:space="preserve">
<style type="text/css">
	.st0{fill:#DFDCD8;}
	.st1{fill:#4C453D;}
</style>
<g>
	<path class="st0" d="M304.7,27.3C207.5-28.8,83.3,4.4,27.2,101.6S4.4,322.9,101.7,379c97.1,56.2,221.3,22.8,277.4-74.3
		C435.2,207.6,401.8,83.3,304.7,27.3z M348.9,287.7c-42.9,74.4-134.2,103.6-211.4,71c0.6-0.8,1.2-1.7,1.8-2.6
		c0.1-0.2,0.2-0.5,0.4-0.7l81.6-141.4c6.2-10.1,2.8-23.2-7.2-29.2c-10.1-6.2-23.2-2.8-29.2,7.2c-0.1,0.2-0.2,0.5-0.4,0.7L102.8,334
		c-0.7,1.2-1.2,2.4-1.7,3.5C34.3,287.1,14.1,193.5,57.1,119c46.6-80.7,149.7-108.2,230.3-61.8S395.6,206.9,348.9,287.7z"/>
</g>
<path class="st1" d="M101.7,379"/>
<path class="st1" d="M129.5,392.4"/>
</svg>
