<?xml version="1.0" encoding="utf-8"?>
<!-- Generator: Adobe Illustrator 26.0.2, SVG Export Plug-In . SVG Version: 6.00 Build 0)  -->
<svg version="1.1" id="Laag_1" xmlns="http://www.w3.org/2000/svg" xmlns:xlink="http://www.w3.org/1999/xlink" x="0px" y="0px"
	 viewBox="0 0 406.3 406.3" style="enable-background:new 0 0 406.3 406.3;" xml:space="preserve">
<style type="text/css">
	.st0{fill:#90F1DF;}
	.st1{fill:#4C453D;}
</style>
<g>
	<path class="st0" d="M304.7,27.3C207.5-28.8,83.3,4.4,27.2,101.6S4.4,322.9,101.7,379c97.1,56.2,221.3,22.8,277.4-74.3
		C435.2,207.6,401.8,83.3,304.7,27.3z M101.2,337.6c-67.1-53.5-85-147.4-44.1-218.6c44.9-78.2,149-108.7,230.3-61.8
		c81.4,47,106.8,152.6,61.5,230.5c-41.3,71-131.6,102.4-211.4,71C125.4,351.6,113.3,344.6,101.2,337.6z"/>
</g>
<path class="st1" d="M101.7,379"/>
<path class="st1" d="M129.5,392.4"/>
</svg>
