<?xml version="1.0" encoding="utf-8"?>
<!-- Generator: Adobe Illustrator 26.0.2, SVG Export Plug-In . SVG Version: 6.00 Build 0)  -->
<svg version="1.1" id="Laag_1" xmlns="http://www.w3.org/2000/svg" xmlns:xlink="http://www.w3.org/1999/xlink" x="0px" y="0px"
	 viewBox="0 0 406.3 406.3" style="enable-background:new 0 0 406.3 406.3;" xml:space="preserve">
<style type="text/css">
	.st0{fill:#DFDCD8;}
</style>
<path class="st0" d="M27.2,101.6C83.3,4.4,207.5-28.8,304.7,27.3c97.1,56,130.5,180.3,74.4,277.4c-22.2,38.4-54.9,66.8-92.5,83.6
	l-17.3-30c32.4-13.8,60.7-37.8,79.6-70.6c46.7-80.8,19.1-184.1-61.5-230.5S103.7,38.3,57.1,119c-43,74.5-22.8,168.1,44,218.5
	c0.5-1.1,1-2.3,1.7-3.5l81.7-141.3c0.2-0.2,0.3-0.5,0.4-0.7c6-10,19.1-13.4,29.2-7.2c10,6,13.4,19.1,7.2,29.2l-81.6,141.4
	c-0.2,0.2-0.3,0.5-0.4,0.7c-0.6,0.9-1.2,1.8-1.8,2.6c0.2,0.1,0.4,0.1,0.5,0.2l-17.2,29.8c-6.5-2.9-12.8-6.1-19.1-9.8
	C4.5,322.9-28.8,198.8,27.2,101.6"/>
</svg>
