<?xml version="1.0" encoding="utf-8"?>
<!-- Generator: Adobe Illustrator 26.0.2, SVG Export Plug-In . SVG Version: 6.00 Build 0)  -->
<svg version="1.1" id="Laag_1" xmlns="http://www.w3.org/2000/svg" xmlns:xlink="http://www.w3.org/1999/xlink" x="0px" y="0px"
	 viewBox="0 0 406.3 406.3" style="enable-background:new 0 0 406.3 406.3;" xml:space="preserve">
<style type="text/css">
	.st0{fill:#DFDCD8;}
	.st1{fill:#4C453D;}
</style>
<path class="st0" d="M203.1,406.1c112.2,0,203.1-90.9,203.1-203.1c0-112.2-90.9-203.1-203.1-203.1S0,90.8,0,203
	C0,315.2,91,406.1,203.1,406.1"/>
<g>
	<path class="st1" d="M225.3,274c-6.2-5.4-12.5-2-13.8-1.2l-0.2-0.2c-9,9.5-18.4,18.7-27.8,27.9c-24.9,24.8-70,16.9-83.8-15.9
		c-19.8-35.5,16.5-62.1,37.7-85.9l0,0c7.7-12.5-6.8-22-16.1-15.7c-29.2,27.1-62.2,60.5-45,104c14,50.2,86.4,68.7,123.4,29.5
		c9.1-9,18.8-17.6,27.1-27.3C229.7,287.5,232.2,280.2,225.3,274z"/>
	<path class="st1" d="M332.9,117.2c-14-50.2-86.4-68.7-123.4-29.5c-9.1,9-18.8,17.6-27.1,27.3c-2.9,1.8-5.5,9.1,1.5,15.3
		c6.2,5.4,12.5,2,13.8,1.2l0.2,0.2c9-9.5,18.4-18.7,27.8-27.9c24.9-24.8,70-16.9,83.8,15.9c19.8,35.5-16.5,62.1-37.7,85.9l0,0
		c-7.7,12.5,6.8,22,16.1,15.7C317.2,194.1,350.2,160.7,332.9,117.2z"/>
	<path class="st1" d="M136.3,277.7c2.4,2.2,5.4,3.3,8.4,3.3c3.4,0,6.8-1.4,9.2-4.1l117-128c4.7-5.1,4.3-13-0.8-17.7
		c-5.1-4.7-13-4.3-17.7,0.8l-117,128C130.9,265.2,131.2,273.1,136.3,277.7z"/>
</g>
</svg>
