<?xml version="1.0" encoding="utf-8"?>
<!-- Generator: Adobe Illustrator 26.0.2, SVG Export Plug-In . SVG Version: 6.00 Build 0)  -->
<svg version="1.1" id="Laag_1" xmlns="http://www.w3.org/2000/svg" xmlns:xlink="http://www.w3.org/1999/xlink" x="0px" y="0px"
	 viewBox="0 0 406.3 406.3" style="enable-background:new 0 0 406.3 406.3;" xml:space="preserve">
<style type="text/css">
	.st0{fill:#DFDCD8;}
</style>
<path class="st0" d="M203.2,0C91.1,0,0,91,0,203.1c0,112.2,91,203.2,203.2,203.2s203.1-90.9,203.1-203.1S315.3,0,203.2,0z
	 M250.3,262.3c-4.6,11.4-12.6,21.9-20.6,31.5c-9.2,10.9-19.9,20.5-30.2,30.5c-16,15.5-35,22.9-57.2,22.6c-36.3-0.1-64-23-74.6-54.2
	c-10.1-29.5-3.6-56.2,16.7-79c12.6-14.2,26.7-27.1,40.4-40.2c2.7-2.6,6.9-3.6,10.5-5.3c0.6,3.6,1.2,7.4,2,11
	c2.7,11.6-3.2,19.2-11.1,27c-11.2,11-22.2,22.4-31.1,35.1c-10.8,15.1-10.3,32.4-2.3,49c11,22.5,29.3,33.4,54.3,32.3
	c13.4-0.5,25.4-5.9,35.1-15.4c10.3-10.1,20.8-20.3,30.7-30.8c11.5-12.3,19.4-26.3,18-43.9c-1.6-19.7-11.2-34.7-27.9-44.8
	c-8.9-5.3-12.1-17-5.4-24.7c1.3-1.5,5.4-1.9,7.7-1.1c18.6,6.6,31.6,19.8,40.8,36.8C257.5,219.1,258.9,241,250.3,262.3z M321.7,192.6
	c-12.6,14.2-26.7,27.1-40.4,40.2c-2.7,2.6-6.9,3.6-10.5,5.3c-0.6-3.6-1.2-7.4-2-11c-2.7-11.6,3.2-19.2,11.1-27
	c11.2-11,22.2-22.4,31.1-35.1c10.8-15.1,10.3-32.4,2.3-49c-11-22.5-29.3-33.4-54.3-32.3c-13.4,0.5-25.4,5.9-35.1,15.4
	c-10.3,10.1-20.8,20.3-30.7,30.8c-11.5,12.3-19.4,26.3-18,43.9c1.6,19.7,11.2,34.7,27.9,44.8c8.9,5.3,12.1,17,5.4,24.7
	c-1.3,1.5-5.4,1.9-7.7,1.1c-18.6-6.6-31.6-19.8-40.8-36.8c-11.3-20.6-12.7-42.4-4.2-63.8c4.6-11.4,12.6-21.9,20.6-31.5
	c9.4-10.9,20.2-20.5,30.3-30.5c15.9-15.5,34.9-22.9,57.1-22.6c36.3,0.1,64,23,74.6,54.2C348.6,143.2,342.1,169.8,321.7,192.6z"/>
</svg>
