<?xml version="1.0" encoding="utf-8"?>
<!-- Generator: Adobe Illustrator 26.0.2, SVG Export Plug-In . SVG Version: 6.00 Build 0)  -->
<svg version="1.1" id="Laag_1" xmlns="http://www.w3.org/2000/svg" xmlns:xlink="http://www.w3.org/1999/xlink" x="0px" y="0px"
	 viewBox="0 0 406.3 406.3" style="enable-background:new 0 0 406.3 406.3;" xml:space="preserve">
<style type="text/css">
	.st0{fill:#E5AD3E;}
</style>
<path class="st0" d="M203.1-0.1C90.9-0.1,0,90.8,0,203s91,203.1,203.1,203.1c112.2,0,203.1-90.9,203.1-203.1S315.3-0.1,203.1-0.1z
	 M228,293.7c-8.7,10.2-18.9,19.3-28.5,28.7c-38.9,41.2-115.1,21.8-129.8-31C51.5,245.7,86.2,210.5,117,182c9.8-6.6,25,3.4,16.9,16.5
	c-22.3,25-60.5,53-39.7,90.4c14.5,34.5,62,42.8,88.2,16.7c9.9-9.7,19.8-19.4,29.2-29.4l0.2,0.2c1.4-0.8,8-4.4,14.5,1.3
	C233.6,284.3,231,292,228,293.7z M254.9,128.3c4.9-5.4,13.3-5.8,18.6-0.8c5.4,4.9,5.8,13.3,0.8,18.6L151.3,280.8
	c-2.5,2.8-6.1,4.3-9.7,4.3c-3.2,0-6.3-1.2-8.8-3.5c-5.4-4.8-5.7-13.2-0.9-18.6L254.9,128.3z M292.2,222.3c-9.8,6.6-25-3.4-16.9-16.5
	c22.3-25,60.5-53,39.7-90.4c-14.5-34.5-62-42.8-88.2-16.7c-9.9,9.7-19.8,19.4-29.2,29.4l-0.2-0.2c-1.4,0.8-8,4.4-14.5-1.3
	c-7.4-6.5-4.6-14.2-1.6-16.1c8.7-10.2,18.9-19.3,28.5-28.7c38.9-41.2,115.1-21.8,129.8,31C357.8,158.5,323.1,193.7,292.2,222.3z"/>
</svg>
