<?xml version="1.0" encoding="utf-8"?>
<!-- Generator: Adobe Illustrator 26.0.2, SVG Export Plug-In . SVG Version: 6.00 Build 0)  -->
<svg version="1.1" id="Laag_1" xmlns="http://www.w3.org/2000/svg" xmlns:xlink="http://www.w3.org/1999/xlink" x="0px" y="0px"
	 viewBox="0 0 406.3 406.3" style="enable-background:new 0 0 406.3 406.3;" xml:space="preserve">
<style type="text/css">
	.st0{fill:#4C453D;}
	.st1{fill:#F0E8E6;}
</style>
<path class="st0" d="M203.2,406.3c112.2,0,203.1-90.9,203.1-203.1C406.3,91,315.3,0,203.2,0S0,91,0,203.1
	C0,315.3,91,406.3,203.2,406.3"/>
<path class="st1" d="M330.9,69.6c-11.5-7.6-27-4.3-34.6,7.2c-3.8,5.8-77.9,119.4-113.2,213c-14.2-19.6-32.3-41.9-54.4-66.6
	c-32.9-36.8-62.3-65.3-63.5-66.5c-9.9-9.6-25.7-9.4-35.3,0.6c-9.6,9.9-9.4,25.7,0.6,35.4C62.2,223.6,149,314,167.9,361.5
	c0.2,0.6,0.5,1.1,0.7,1.7c0,0.1,0.1,0.2,0.1,0.3c0.3,0.5,0.5,1,0.8,1.5c0.1,0.1,0.1,0.2,0.2,0.3c0.2,0.4,0.4,0.7,0.7,1
	c0.1,0.2,0.2,0.4,0.4,0.5c0.3,0.4,0.6,0.8,0.8,1.1c0.1,0.2,0.3,0.3,0.4,0.5c0.2,0.2,0.4,0.5,0.6,0.7c0.1,0.2,0.3,0.3,0.4,0.5
	c0.3,0.3,0.7,0.7,1,1c0.1,0.1,0.2,0.2,0.4,0.3c0.3,0.3,0.7,0.6,1.1,0.9c0.1,0,0.1,0.1,0.2,0.1c0.5,0.4,0.9,0.7,1.4,1
	c0,0,0.1,0.1,0.1,0.1c1,0.7,2,1.2,3.1,1.7c0,0,0,0,0,0c1.1,0.5,2.2,0.9,3.3,1.3c0.1,0,0.2,0.1,0.3,0.1c0.4,0.1,0.9,0.2,1.3,0.4
	c0.1,0,0.3,0.1,0.4,0.1c0.5,0.1,0.9,0.2,1.4,0.3c0,0,0,0,0.1,0c0.6,0.1,1.3,0.2,1.9,0.2c0,0,0,0,0,0c0.6,0.1,1.3,0.1,2,0.1
	c0.7,0,1.5,0,2.2-0.1c0,0,0.1,0,0.1,0c0.7-0.1,1.3-0.2,2-0.3c0.1,0,0.2,0,0.3-0.1c0.6-0.1,1.2-0.2,1.7-0.4c0.2,0,0.3-0.1,0.5-0.1
	c0.5-0.2,1.1-0.3,1.6-0.5c0.2-0.1,0.4-0.1,0.6-0.2c0.1,0,0.2-0.1,0.3-0.1c0.4-0.2,0.9-0.4,1.3-0.6c0.1-0.1,0.3-0.1,0.4-0.2
	c0.6-0.3,1.1-0.6,1.7-0.9c0,0,0,0,0,0c0.6-0.4,1.2-0.7,1.8-1.1c0,0,0.1,0,0.1-0.1c0.6-0.4,1.1-0.8,1.6-1.3c0,0,0.1,0,0.1-0.1
	c0.5-0.5,1-0.9,1.5-1.4c0,0,0,0,0.1-0.1c0.5-0.5,1-1,1.4-1.6c0,0,0,0,0,0c0.4-0.5,0.8-1,1.2-1.5c0.1-0.1,0.2-0.2,0.2-0.3
	c0.3-0.5,0.6-1,0.9-1.4c0.1-0.2,0.2-0.3,0.3-0.5c0.3-0.5,0.5-1,0.8-1.5c0.1-0.2,0.2-0.4,0.3-0.6c0.2-0.5,0.4-1,0.6-1.6
	c0.1-0.2,0.1-0.3,0.2-0.5c0.2-0.6,0.4-1.2,0.5-1.8c0-0.1,0-0.2,0.1-0.3c0.2-0.7,0.3-1.4,0.4-2.1c0,0,0,0,0,0
	c13.6-85.2,121.3-250.3,122.4-252C345.7,92.7,342.5,77.2,330.9,69.6z"/>
</svg>
