<?xml version="1.0" encoding="utf-8"?>
<!-- Generator: Adobe Illustrator 26.0.2, SVG Export Plug-In . SVG Version: 6.00 Build 0)  -->
<svg version="1.1" id="Laag_1" xmlns="http://www.w3.org/2000/svg" xmlns:xlink="http://www.w3.org/1999/xlink" x="0px" y="0px"
	 viewBox="0 0 406.3 406.3" style="enable-background:new 0 0 406.3 406.3;" xml:space="preserve">
<style type="text/css">
	.st0{fill:#7C7164;}
</style>
<path class="st0" d="M304.7,27.2c-97.1-56-221.4-22.8-277.5,74.4c-56,97.2-22.8,221.4,74.4,277.5s221.4,22.8,277.5-74.4
	C435.2,207.6,401.9,83.3,304.7,27.2z M356.9,221.2H221.2V357c0,9.9-8.1,18-18,18s-18-8.1-18-18V221.2H49.4c-9.9,0-18-8.1-18-18
	s8.1-18,18-18h135.8V49.4c0-9.9,8.1-18,18-18s18,8.1,18,18v135.8H357c9.9,0,18,8.1,18,18C374.9,213.1,366.9,221.2,356.9,221.2z"/>
</svg>
