<?xml version="1.0" encoding="utf-8"?>
<!-- Generator: Adobe Illustrator 26.0.2, SVG Export Plug-In . SVG Version: 6.00 Build 0)  -->
<svg version="1.1" id="Laag_1" xmlns="http://www.w3.org/2000/svg" xmlns:xlink="http://www.w3.org/1999/xlink" x="0px" y="0px"
	 viewBox="0 0 100 99.4" style="enable-background:new 0 0 100 99.4;" xml:space="preserve">
<style type="text/css">
	.st0{fill:#DFDCD8;}
</style>
<g id="Laag_2_00000170959015173722745660000013801477257315666316_">
	<g id="Laag_1-2">
		<path class="st0" d="M42.8,39.8l17.5,10c-5.9,3.6-11.5,7-17.5,10.6V39.8z"/>
		<path class="st0" d="M81.5,60.4c-0.5,6.8-6.2,11.9-13.1,12.2C62.2,73,56,72.7,49.8,72.7l0,0c-6,0-12,0.3-17.9-0.1
			c-8.5-0.5-13.7-6.2-13.9-14.8c-0.1-5.5-0.1-10.9,0-16.4c0.1-7.7,5.8-14.1,13.4-14.2c12.5-0.3,25-0.1,37.4,0.2
			c6.3,0,11.6,4.8,12.2,11.1C81.8,45.8,81.9,53.1,81.5,60.4 M72.8,0H27C13.5,0,2.1,10,0.3,23.4c0,0.4-0.1,0.8-0.1,1.2
			C0,41-0.1,57.3,0.2,73.7c0,0.9,0.1,1.7,0.2,2.6c1.6,11.1,9.9,20,20.8,22.5c1.7,0.3,3.3,0.5,5,0.5c15.6,0.1,31.2-0.3,46.7,0.2
			c0.2,0,0.4,0,0.6,0c9.6-0.2,18.4-5.4,23.1-13.8l0.3-0.5c0.1-0.2,0.1-0.3,0.2-0.4c1.6-3.6,2.5-7.4,2.6-11.3c0.5-15.6,0.4-31.3,0-47
			c0-2.9-0.5-5.7-1.3-8.4C94.5,7.1,84.4,0,73,0"/>
	</g>
</g>
</svg>
