<?xml version="1.0" encoding="utf-8"?>
<!-- Generator: Adobe Illustrator 26.0.2, SVG Export Plug-In . SVG Version: 6.00 Build 0)  -->
<svg version="1.1" id="Laag_1" xmlns="http://www.w3.org/2000/svg" xmlns:xlink="http://www.w3.org/1999/xlink" x="0px" y="0px"
	 viewBox="0 0 100 100" style="enable-background:new 0 0 100 100;" xml:space="preserve">
<style type="text/css">
	.st0{fill:#DFDCD8;}
</style>
<g id="Laag_2_00000069383144479899284500000016599560152075536046_">
	<g id="Laag_1-2">
		<path class="st0" d="M99.9,74.5c0.2-16.3,0.2-32.6,0-48.9c0-0.5,0-1-0.1-1.5C98.6,12.6,90.2,3.2,78.9,0.7l-1.2-0.2
			C76.2,0.2,74.8,0,73.3,0H26.7c-0.6,0-1.1,0-1.7,0.1s-1.7,0.2-2.7,0.3c-11.6,2-20.5,11.3-22.1,23V24c-0.3,17-0.3,33.9,0,50.8
			c0,1.2,0.1,2.5,0.3,3.7c2.3,11.3,11.6,19.8,23,21.3c0.7,0.1,1.4,0.1,2.1,0.2h0.9h0.9h2.9c3.6-0.1,7.1-0.3,10.6-0.3V65h-12V50h12.7
			c0-5-0.2-9.9,0-14.7c0.5-8,4.8-13.8,12-15.9c5.7-1.6,11.9-1.2,18.2-1.8v14.8c-3,0-5.6-0.1-8.2,0c-3.9,0.2-6.5,2-6.7,5
			c-0.3,4-0.1,8-0.1,12.5h14c-0.8,5.3-1.5,10-2.2,15H56.9v34.8c6.1,0,11.9,0.1,17.7,0c1.6,0,3.1-0.2,4.7-0.5
			c10.9-2.7,19-11.8,20.4-23c0-0.6,0.1-1.1,0.1-1.7"/>
	</g>
</g>
</svg>
