<?xml version="1.0" encoding="utf-8"?>
<!-- Generator: Adobe Illustrator 26.0.2, SVG Export Plug-In . SVG Version: 6.00 Build 0)  -->
<svg version="1.1" id="Laag_1" xmlns="http://www.w3.org/2000/svg" xmlns:xlink="http://www.w3.org/1999/xlink" x="0px" y="0px"
	 viewBox="0 0 100 99.4" style="enable-background:new 0 0 100 99.4;" xml:space="preserve">
<style type="text/css">
	.st0{fill:#DFDCD8;}
</style>
<g id="Laag_2_00000034062793856274329630000009771208475725876134_">
	<g id="Laag_1-2">
		<path class="st0" d="M70,25.5c-2.4,0-4.3,1.9-4.4,4.3c-0.1,2.4,1.8,4.5,4.2,4.5c0.1,0,0.1,0,0.2,0c2.4,0,4.3-1.9,4.4-4.3
			c0-0.1,0-0.2,0-0.3C74.3,27.4,72.4,25.5,70,25.5 M31.1,49.6C31,60.1,39.5,68.8,50,68.9S69.2,60.5,69.3,50
			c0.1-10.5-8.3-19.1-18.8-19.3C40,30.6,31.3,39,31.1,49.6C31.1,49.6,31.1,49.6,31.1,49.6 M20,50c0-5.6-0.3-11.3,0.1-16.9
			c0.5-7.2,6.3-12.8,13.5-13c11.2-0.4,22.3-0.3,33.5,0c7.6,0.2,12.6,4.5,13,12.1c0.6,11.9,0.6,23.8,0,35.7c-0.3,7.3-4.7,11.7-12,12
			c-12,0.5-24,0.5-36,0c-7.2-0.3-11.2-5.3-12-12.5C20,66.7,20,65.9,20,65.2C20,60.1,20,55.1,20,50L20,50"/>
		<path class="st0" d="M62.5,49.7c0.1,6.8-5.4,12.3-12.2,12.4c-0.1,0-0.1,0-0.2,0c-6.8,0-12.4-5.5-12.4-12.4
			c0-6.8,5.5-12.4,12.4-12.4C57,37.3,62.5,42.8,62.5,49.7"/>
		<path class="st0" d="M86.7,68c-0.5,10.5-8,17.8-18.5,18.3c-11.7,0.6-23.4,0.6-35.1,0.1C21,85.8,13.9,77.9,13.3,65.8
			c-0.2-5.4,0-10.8,0-16.2s-0.2-10.8,0.1-16.2c0.6-12,7.8-19.9,19.6-20.4c11.5-0.5,23-0.5,34.5,0s18.8,7.7,19.3,19.2
			C87.4,44.2,87.4,56.1,86.7,68 M100,73.4c0.1-15.8,0.1-31.5,0-47.3C99.5,11.5,87.6,0,73,0H27C12.1,0,0,12.1,0,27v45.4
			c0,13.5,10,24.9,23.4,26.7c17.8,0.3,35.5,0.4,53.3,0C89.7,97.4,99.5,86.5,100,73.4"/>
	</g>
</g>
</svg>
