<?xml version="1.0" encoding="utf-8"?>
<!-- Generator: Adobe Illustrator 26.0.2, SVG Export Plug-In . SVG Version: 6.00 Build 0)  -->
<svg version="1.1" id="Laag_1" xmlns="http://www.w3.org/2000/svg" xmlns:xlink="http://www.w3.org/1999/xlink" x="0px" y="0px"
	 viewBox="0 0 406.3 406.3" style="enable-background:new 0 0 406.3 406.3;" xml:space="preserve">
<style type="text/css">
	.st0{fill:#DFDCD8;}
</style>
<path class="st0" d="M304.7,27.2C207.6-28.8,83.3,4.4,27.2,101.6C-28.8,198.8,4.4,323,101.6,379.1c97.2,56.1,221.4,22.8,277.5-74.4
	C435.2,207.6,401.9,83.3,304.7,27.2z M356.9,221.2H221.2v135.8c0,9.9-8.1,18-18,18c-9.9,0-18-8.1-18-18V221.2H49.4
	c-9.9,0-18-8.1-18-18c0-9.9,8.1-18,18-18h135.8V49.4c0-9.9,8.1-18,18-18c9.9,0,18,8.1,18,18v135.8h135.8c9.9,0,18,8.1,18,18
	C374.9,213.1,366.9,221.2,356.9,221.2z"/>
</svg>
