<?xml version="1.0" encoding="utf-8"?>
<!-- Generator: Adobe Illustrator 26.0.2, SVG Export Plug-In . SVG Version: 6.00 Build 0)  -->
<svg version="1.1" id="Laag_1" xmlns="http://www.w3.org/2000/svg" xmlns:xlink="http://www.w3.org/1999/xlink" x="0px" y="0px"
	 viewBox="0 0 406.3 406.3" style="enable-background:new 0 0 406.3 406.3;" xml:space="preserve">
<style type="text/css">
	.st0{fill:#DFDCD8;}
</style>
<path class="st0" d="M304.7,27.2C207.6-28.8,83.3,4.4,27.2,101.6C-28.8,198.8,4.4,323,101.6,379.1c97.2,56.1,221.4,22.8,277.5-74.4
	C435.2,207.6,401.9,83.3,304.7,27.2z M326.3,323.1c-4.8,4.7-12.5,4.6-17.2-0.2l-44.8-44.8h-119l-44.8,44.8c-4.7,4.6-12.3,4.6-17,0
	c-4.8-4.7-4.9-12.4-0.2-17.2l44.8-44.8V142L83.4,97.2c-4.6-4.7-4.6-12.3,0-17c4.7-4.8,12.4-4.9,17.2-0.2l48.2,48.2H261L309.1,80
	c0.1-0.1,0.1-0.1,0.2-0.2c4.8-4.7,12.5-4.6,17.2,0.2c4.7,4.8,4.6,12.5-0.2,17.2l-48.2,48.2v112.2l48.2,48.2c0.1,0.1,0.1,0.1,0.2,0.2
	C331.2,310.7,331.1,318.4,326.3,323.1z"/>
</svg>
