<?xml version="1.0" encoding="utf-8"?>
<!-- Generator: Adobe Illustrator 26.0.2, SVG Export Plug-In . SVG Version: 6.00 Build 0)  -->
<svg version="1.1" id="Laag_1" xmlns="http://www.w3.org/2000/svg" xmlns:xlink="http://www.w3.org/1999/xlink" x="0px" y="0px"
	 viewBox="0 0 100 99.4" style="enable-background:new 0 0 100 99.4;" xml:space="preserve">
<style type="text/css">
	.st0{fill:#DFDCD8;}
</style>
<g id="Laag_2_00000110460703301934553680000009593329008296903061_">
	<g id="Laag_1-2">
		<g>
			<g>
				<path class="st0" d="M88,65.2c-2.2,2-5,3.2-8,3.1c-9.5,0-18.9,0-28.4,0c-1.3,0.1-2.4-0.8-2.5-2.1c0-0.1,0-0.2,0-0.4
					c0-0.2,0-0.4,0-0.7c0-9.8,0-19.6,0-29.4c-0.1-1.4,0.7-2.6,1.9-3.2c2.8-1.4,5.9-1.9,9-1.6c3.7,0.2,7.3,1.6,10.3,3.8
					c3.6,2.7,6.1,6.5,7.1,10.9l0.1,0.1c0.6-0.1,1.2-0.2,1.7-0.3c5.8-0.7,11.1,3.1,12.3,8.8C92.4,58.3,91.1,62.5,88,65.2 M46.3,57.7
					c0,1.8-0.2,3.7-0.3,5.5c-0.1,1.5-0.3,2.9-0.5,4.4c-0.1,0.5-0.5,0.9-1.1,0.8c-0.5-0.1-0.8-0.4-0.8-0.9c-0.6-5-0.8-10.1-0.9-15.1
					c0.1-3.3,0.2-6.6,0.4-9.9c0.1-1.7,0.3-3.5,0.5-5.2c0-0.5,0.4-0.9,0.9-0.9c0,0,0,0,0,0c0.5,0,1,0.4,1,0.9
					c0.1,0.8,0.2,1.7,0.2,2.5c0.2,2.1,0.4,4.3,0.5,6.4C46.3,50,46.4,53.8,46.3,57.7 M40.8,55.7c-0.1,2.8-0.2,5.5-0.4,8.3
					c-0.1,1.2-0.2,2.3-0.4,3.4c-0.1,0.5-0.5,0.8-0.9,0.8c-0.5,0.1-0.9-0.3-1-0.8c0,0,0,0,0,0c-0.2-1.2-0.3-2.4-0.4-3.6
					c-0.2-3.2-0.3-6.5-0.5-9.9c0.2-3.2,0.4-6.6,0.6-10c0.1-1,0.2-2,0.3-3c0-0.5,0.5-0.9,1-0.8c0.5,0,0.9,0.4,0.9,0.8
					C40.6,45.8,40.9,50.8,40.8,55.7 M34.9,54.3c-0.1,3.5-0.3,6.9-0.6,10.4c-0.1,0.9-0.2,1.8-0.3,2.7c0,0.5-0.4,0.9-0.9,0.9
					c-0.6,0-1-0.4-1-1c-0.1-1.3-0.3-2.5-0.4-3.8c-0.2-3.3-0.4-6.7-0.5-10c0.2-3.3,0.3-6.6,0.5-9.9c0.1-1.3,0.2-2.5,0.4-3.8
					c0-0.6,0.4-1,1-1c0.5,0.1,0.9,0.5,1,1C34.7,44.6,35,49.4,34.9,54.3 M29.1,58.2c-0.1,3.1-0.5,6.1-0.8,9.1c-0.1,0.5-0.5,0.9-1,0.8
					c-0.5,0-0.9-0.3-0.9-0.8c-0.2-1.4-0.4-2.9-0.5-4.4c-0.2-2.7-0.3-5.4-0.4-8.3c0.2-2.8,0.3-5.9,0.5-9c0.1-1,0.2-2.1,0.4-3.1
					c0.1-0.5,0.5-0.8,1-0.8c0.5,0,1,0.4,1,0.9C29.1,47.8,29.4,53,29.1,58.2 M23.2,60.5c-0.1,1.9-0.4,3.7-0.5,5.6
					c0,0.5-0.1,0.9-0.1,1.4c0,0.6-0.4,1-1,1c-0.5,0-0.9-0.3-0.9-0.9c-0.5-3.6-0.8-7.2-0.8-10.9c0-2.6,0.2-5.1,0.8-7.7
					c0.1-0.7,0.5-1.1,1.1-1c0.4,0,0.7,0.3,0.8,0.6c0.3,1.7,0.6,3.4,0.8,5.1C23.3,56,23.3,58.2,23.2,60.5 M17.5,55.7
					c0,2.1-0.1,4.2-0.2,6.4c-0.1,1.5-0.4,3-0.6,4.5c0,0.5-0.5,0.9-1,0.9c0,0,0,0,0,0c-0.5,0-0.9-0.4-0.9-0.9c-1-6.1-1-12.4,0-18.5
					c0.1-0.5,0.5-0.9,1-0.8c0.5,0,0.9,0.3,1,0.8c0.2,1.3,0.4,2.6,0.6,3.9C17.5,53.1,17.5,54.4,17.5,55.7 M11.8,57.2
					c0,1.9-0.3,3.9-0.8,5.8c-0.1,0.2-0.1,0.5-0.1,0.7c-0.1,0.5-0.5,0.8-1,0.7c-0.4,0-0.8-0.3-0.9-0.7c-0.7-2.9-0.9-5.9-0.6-8.9
					c0.1-1.1,0.3-2.3,0.5-3.4c0.1-0.7,0.5-1,1-1s0.9,0.3,1,0.9c0.5,2,0.8,4,0.8,6 M100,26.1C99.5,11.5,87.6,0,73,0H27
					C12.1,0,0,12.1,0,27v45.4c0,13.5,10,24.9,23.4,26.7c17.8,0.3,35.5,0.4,53.3,0c13-1.8,22.9-12.6,23.3-25.8
					C100.1,57.6,100.1,41.8,100,26.1"/>
			</g>
		</g>
	</g>
</g>
</svg>
