<?xml version="1.0" encoding="utf-8"?>
<!-- Generator: Adobe Illustrator 26.0.2, SVG Export Plug-In . SVG Version: 6.00 Build 0)  -->
<svg version="1.1" id="Laag_1" xmlns="http://www.w3.org/2000/svg" xmlns:xlink="http://www.w3.org/1999/xlink" x="0px" y="0px"
	 viewBox="0 0 100 100" style="enable-background:new 0 0 100 100;" xml:space="preserve">
<style type="text/css">
	.st0{fill:#4C453D;}
</style>
<g id="Laag_2_00000130606403942886730710000005153667287935451812_">
	<g id="Laag_1-2">
		<path class="st0" d="M39.5,56.2V39.1c0-0.9,0.6-1.7,1.5-1.9l2.2-0.5l12.5-2.5c2.6-0.5,5.3-1.1,7.9-1.6c1.5-0.3,3-0.6,4.5-0.8
			c0.6-0.1,1.2,0.3,1.3,0.9c0.1,0.3,0.1,0.7,0.1,1.1v22.3c0,0.3,0,0.5,0,0.8c-0.1,1.1-0.9,2.1-2,2.4c-1.4,0.3-2.9,0.6-4.3,0.9
			c-1.6,0.3-3.2,0.8-4.7,1.4c-3.9,1.8-5.6,6.5-3.7,10.4c1.3,2.8,4.1,4.5,7.1,4.5c1.6,0,3.3-0.3,4.9-0.7c2.6-0.7,4.8-2.5,5.8-5
			c0.6-1.5,0.9-3.2,0.9-4.8c0-8,0-16,0-24c0-7.6,0-15.2,0-22.8c0-0.6,0-1.1-0.1-1.7c0-1.1-0.9-2-2-2c0,0-0.1,0-0.1,0
			c-0.6,0-1.2,0.1-1.8,0.2l-4.7,0.9l-9.4,1.8L46.8,20c-3,0.6-5.9,1.2-8.9,1.9c-1.1,0.2-1.9,1-2.1,2c-0.1,0.6-0.2,1.2-0.2,1.8
			c0,12.4,0,24.9,0,37.3c0,0.1,0,0.3,0,0.4c-0.1,1.3-1,2.4-2.3,2.7c-1,0.2-2,0.4-3,0.6C28.7,67,27,67.4,25.4,68
			c-1.2,0.4-2.2,1-3.1,1.8c-3.1,3-3.2,8-0.2,11.1c1.4,1.5,3.3,2.3,5.3,2.4c1.7,0,3.5-0.3,5.1-0.7c2-0.5,3.8-1.8,5-3.5
			c1.2-1.7,1.8-3.7,1.8-5.8C39.4,67.6,39.4,61.9,39.5,56.2 M76,100H25h-0.3l-3.6-0.2c-1.9-0.1-3.9-0.5-5.7-1
			c-2.3-0.7-4.5-1.7-6.4-3.2c-3.8-2.8-6.5-6.7-7.8-11.2c-0.8-2.9-1.2-6-1.2-9C0,59,0,42.6,0,26.2c0-1.6,0.1-3.2,0.2-4.8
			c0.1-1.6,0.4-3.3,0.8-4.9c1-4.3,3.4-8.2,6.8-11c2.4-2.1,5.2-3.6,8.3-4.4c2.9-0.8,6-1.1,9-1.1c16.2,0,32.4,0,48.7,0
			c0.6,0,1.3,0,1.9,0.1c1.3,0.1,2.5,0.1,3.8,0.2c1.3,0.1,2.7,0.4,4,0.6c1.5,0.4,3,0.9,4.4,1.6c4.7,2.3,8.3,6.2,10.2,11
			c1.1,2.8,1.7,5.8,1.8,8.9c0,0.5,0.1,0.9,0.1,1.4v52.1c0,0.5-0.1,0.9-0.1,1.4c-0.1,1.7-0.3,3.3-0.6,5c-0.6,3.8-2.3,7.4-4.9,10.3
			c-2.6,2.9-5.9,5.1-9.7,6.2c-2.4,0.7-5,1.1-7.5,1.2l-1.5,0.1"/>
	</g>
</g>
</svg>
