<?xml version="1.0" encoding="utf-8"?>
<!-- Generator: Adobe Illustrator 26.0.2, SVG Export Plug-In . SVG Version: 6.00 Build 0)  -->
<svg version="1.1" id="Laag_1" xmlns="http://www.w3.org/2000/svg" xmlns:xlink="http://www.w3.org/1999/xlink" x="0px" y="0px"
	 viewBox="0 0 406.3 406.3" style="enable-background:new 0 0 406.3 406.3;" xml:space="preserve">
<style type="text/css">
	.st0{fill:#E5AD3E;}
</style>
<path class="st0" d="M362,240.5c-2.3-5.7-7.9-9.3-14-9.3h-61.3v-216C286.7,6.8,280,0,271.6,0H134.7c-8.4,0-15.1,6.8-15.1,15.1v216
	H58.3c-6.1,0-11.6,3.7-14,9.3c-2.3,5.7-1,12.2,3.3,16.5l144.9,144.9c3,3,6.8,4.4,10.7,4.4c3.9,0,7.8-1.5,10.7-4.4L358.7,257
	C363,252.7,364.3,246.2,362,240.5z"/>
</svg>
