<?xml version="1.0" encoding="utf-8"?>
<!-- Generator: Adobe Illustrator 26.0.2, SVG Export Plug-In . SVG Version: 6.00 Build 0)  -->
<svg version="1.1" id="Laag_1" xmlns="http://www.w3.org/2000/svg" xmlns:xlink="http://www.w3.org/1999/xlink" x="0px" y="0px"
	 viewBox="0 0 406.3 406.3" style="enable-background:new 0 0 406.3 406.3;" xml:space="preserve">
<style type="text/css">
	.st0{fill:#4C453D;}
</style>
<g id="Laag_2_00000173841297776619866280000011447584579515481527_">
	<g id="Laag_1-2">
		<g>
			<g>
				<path class="st0" d="M304.7,27.2C207.6-28.8,83.3,4.4,27.2,101.6C-28.8,198.8,4.4,323,101.6,379.1
					c97.2,56.1,221.4,22.8,277.5-74.4C435.2,207.6,401.9,83.3,304.7,27.2z M351.9,289C351.8,289,351.8,289,351.9,289
					c-47.4,82.1-152.4,110.3-234.5,62.8C35.2,304.4,7.1,199.4,54.5,117.3C101.9,35.2,206.9,7.1,289,54.5
					C371.1,101.9,399.3,206.9,351.9,289z"/>
				<path class="st0" d="M274.4,79.8c-68.2-39.3-155.3-16-194.7,52.2c-36.3,63-19.2,142.1,37.3,184.8c0.4-1,0.8-2,1.4-3l69-119.5
					c0.1-0.2,0.2-0.4,0.3-0.6c5.1-8.5,16.2-11.3,24.7-6.1c8.5,5.1,11.3,16.2,6.1,24.7l-69,119.5c-0.1,0.2-0.2,0.4-0.3,0.6
					c-0.5,0.8-1,1.5-1.5,2.2c65.3,27.6,142.4,2.9,178.7-60c0,0,0,0,0,0C365.9,206.3,342.6,119.1,274.4,79.8z"/>
			</g>
		</g>
	</g>
</g>
</svg>
