<?xml version="1.0" encoding="utf-8"?>
<!-- Generator: Adobe Illustrator 26.0.2, SVG Export Plug-In . SVG Version: 6.00 Build 0)  -->
<svg version="1.1" id="Laag_1" xmlns="http://www.w3.org/2000/svg" xmlns:xlink="http://www.w3.org/1999/xlink" x="0px" y="0px"
	 viewBox="0 0 99 99" style="enable-background:new 0 0 99 99;" xml:space="preserve">
<style type="text/css">
	.st0{fill:#4C453D;}
</style>
<g id="Laag_2_00000076604365402787636740000000540216300366472626_">
	<g id="Laag_1-2">
		<g>
			<g>
				<path class="st0" d="M45.2,79.8h8.4V60.3h-8.4V79.8z M59.3,39.5L70,29.3l-6-5.6l-10.2,9.7V19.2h-8.7V34l-10-10.2L29,29.4
					l10.6,10.1l-0.1,0.2H24.8v8.4h14.9L29.3,58.3l6.1,6.1l14-14.7c0.5,0.5,0.8,0.7,1,1l13.1,12.8c0.3,0.3,0.6,0.7,1.1,0.2
					c1.7-1.8,3.4-3.6,5.2-5.4L59.3,48.2l0.1-0.3h14.8v-8.4H59.3z M49.4,0H78c5.5-0.2,10.8,1.9,14.8,5.7c3.2,3.1,5.3,7.1,5.9,11.5
					c0.2,1.5,0.3,3.1,0.3,4.6c0,18.7,0,37.4,0,56.1c0.1,4.2-1,8.4-3.3,11.9c-3.1,4.9-8.2,8.1-14,8.9c-1.3,0.2-2.7,0.3-4,0.3
					c-18.8,0-37.6,0-56.5,0c-4.9,0.2-9.6-1.4-13.5-4.3C3.6,91.6,1,87,0.4,82C0,78.6-0.1,75.3,0,71.9c0-11,0-22,0-33
					c0-6.7,0-13.3,0.1-20c0.2-4.3,1.8-8.4,4.6-11.6C8,3.4,12.6,0.8,17.6,0.2C18.6,0,19.7,0,20.8,0H49.4"/>
			</g>
		</g>
	</g>
</g>
</svg>
