<?xml version="1.0" encoding="utf-8"?>
<!-- Generator: Adobe Illustrator 26.0.2, SVG Export Plug-In . SVG Version: 6.00 Build 0)  -->
<svg version="1.1" id="Laag_1" xmlns="http://www.w3.org/2000/svg" xmlns:xlink="http://www.w3.org/1999/xlink" x="0px" y="0px"
	 viewBox="0 0 406.3 406.3" style="enable-background:new 0 0 406.3 406.3;" xml:space="preserve">
<style type="text/css">
	.st0{fill:#4C453D;}
	.st1{fill:#F0E8E6;}
</style>
<path class="st0" d="M203.2,406.3c112.2,0,203.1-90.9,203.1-203.1C406.3,91,315.3,0,203.2,0S0,91,0,203.1
	C0,315.3,91,406.3,203.2,406.3"/>
<path class="st1" d="M260.1,68.4c34,0.1,60,21.6,69.9,50.8c9.5,27.7,3.4,52.7-15.7,74.1c-11.8,13.3-25,25.4-37.9,37.7
	c-2.5,2.4-6.5,3.4-9.8,5c-0.6-3.4-1.1-6.9-1.9-10.3c-2.5-10.9,3-18,10.4-25.3c10.5-10.3,20.8-21,29.2-32.9
	c10.1-14.2,9.7-30.4,2.2-45.9c-10.3-21.1-27.5-31.3-50.9-30.3c-12.6,0.5-23.8,5.5-32.9,14.4c-9.7,9.5-19.5,19-28.8,28.9
	c-10.8,11.5-18.2,24.7-16.9,41.2c1.5,18.5,10.5,32.5,26.2,42c8.3,5,11.3,15.9,5.1,23.2c-1.2,1.4-5.1,1.8-7.2,1
	c-17.4-6.2-29.6-18.6-38.3-34.5c-10.6-19.3-11.9-39.8-3.9-59.8c4.3-10.7,11.8-20.5,19.3-29.5C187,108,197.1,99,206.6,89.6
	C221.5,75.1,239.3,68.1,260.1,68.4"/>
<path class="st1" d="M146.2,337.9c-34-0.1-60-21.6-69.9-50.8c-9.5-27.7-3.4-52.7,15.7-74.1c11.8-13.3,25-25.4,37.9-37.7
	c2.5-2.4,6.5-3.4,9.8-5c0.6,3.4,1.1,6.9,1.9,10.3c2.5,10.9-3,18-10.4,25.3c-10.5,10.3-20.8,21-29.2,32.9
	c-10.1,14.2-9.7,30.4-2.2,45.9c10.3,21.1,27.5,31.3,50.9,30.3c12.6-0.5,23.8-5.5,32.9-14.4c9.7-9.5,19.5-19,28.8-28.9
	c10.8-11.5,18.2-24.7,16.9-41.2c-1.5-18.5-10.5-32.5-26.2-42c-8.3-5-11.3-15.9-5.1-23.2c1.2-1.4,5.1-1.8,7.2-1
	c17.4,6.2,29.6,18.6,38.3,34.5c10.6,19.3,11.9,39.8,3.9,59.8c-4.3,10.7-11.8,20.5-19.3,29.5c-8.6,10.2-18.7,19.2-28.3,28.6
	C184.8,331.2,167,338.2,146.2,337.9"/>
</svg>
