<?xml version="1.0" encoding="utf-8"?>
<!-- Generator: Adobe Illustrator 26.0.2, SVG Export Plug-In . SVG Version: 6.00 Build 0)  -->
<svg version="1.1" id="Laag_1" xmlns="http://www.w3.org/2000/svg" xmlns:xlink="http://www.w3.org/1999/xlink" x="0px" y="0px"
	 viewBox="0 0 406.3 406.3" style="enable-background:new 0 0 406.3 406.3;" xml:space="preserve">
<style type="text/css">
	.st0{fill:#E5AD3E;}
</style>
<path class="st0" d="M293,127.6c0,33.4-17.5,55.4-43.2,75.3l-11.4,9c-12.6,9.8-20,20.8-22,36.6c-2,13.8-8.1,20.4-18.3,20.4
	c-14.7,0-19.5-13.4-16.7-28.1c3.3-16.3,13.8-34.2,37.9-55l9.8-8.6c13.4-11.8,26.9-26.5,26.9-47.2c0-25.2-18.3-44.8-50.1-44.8
	c-30.5,0-51.3,18.3-56.2,47.2c-2.9,16.7-9,22-18.7,22c-16.3,0-20.4-15.5-15.9-33c10.6-41.1,45.6-65.6,90.8-65.6
	C257.5,55.9,293,88.9,293,127.6 M168.8,321.8c0-15.9,13-28.9,28.9-28.9s28.9,13,28.9,28.9s-13,28.9-28.9,28.9
	C181.8,350.7,168.8,337.7,168.8,321.8 M406.3,203.5C406.4,91.4,315.7,0.3,203.9,0.2C91.4,0,0.2,90.6,0,202.7
	c-0.3,112.5,90.6,203.7,203,203.7C315.5,406.5,406.2,315.9,406.3,203.5"/>
</svg>
