<?xml version="1.0" encoding="utf-8"?>
<!-- Generator: Adobe Illustrator 26.0.2, SVG Export Plug-In . SVG Version: 6.00 Build 0)  -->
<svg version="1.1" id="Laag_1" xmlns="http://www.w3.org/2000/svg" xmlns:xlink="http://www.w3.org/1999/xlink" x="0px" y="0px"
	 viewBox="0 0 101.2 101" style="enable-background:new 0 0 101.2 101;" xml:space="preserve">
<style type="text/css">
	.st0{fill:#4C453D;}
</style>
<g id="Laag_2_00000100346423429428680820000018344420265038076333_">
	<g id="Laag_1-2">
		<g>
			<g>
				<path class="st0" d="M50.5,90.3c22,0,39.9-17.8,39.9-39.8c0-22-17.8-39.9-39.8-39.9S10.7,28.5,10.7,50.5c0,0,0,0.1,0,0.1
					C10.7,72.6,28.6,90.3,50.5,90.3 M15.8,0h69.6c0.2,0.1,0.4,0.1,0.6,0.2c1,0.2,2,0.3,3,0.6c3.5,1,6.6,3.1,8.8,6.1
					c1.8,2.2,2.9,5,3.2,7.8c0.2,4,0,8,0,12V77c0,3.3,0.3,6.6-0.1,9.8c-0.6,5.3-3.8,9.9-8.6,12.2c-1.6,0.8-3.3,1.4-5.1,1.9H14
					c0,0-0.1-0.1-0.1-0.1c-2.8-0.5-5.4-1.7-7.6-3.5c-3.9-3.1-6.2-7.8-6.2-12.8c-0.1-3.3,0-6.7,0-10c0-17.2-0.1-34.3,0-51.4
					c-0.1-3.1,0-6.3,0.4-9.4C1.7,6.8,6.1,2.5,12.8,0.6C13.8,0.3,14.8,0.2,15.8,0"/>
				<path class="st0" d="M43.8,31.6c3.8,0.2,6.8,0.2,9.8,0.6c6.7,0.6,13.4,2.3,19.6,5c1.6,0.7,3.1,1.5,4.6,2.3
					c1.4,0.8,2.2,2.4,1.9,4c-0.3,1.7-1.8,3-3.6,3c-0.7,0-1.4-0.2-2-0.6c-4.8-2.7-9.9-4.5-15.3-5.5c-6-1.1-12.2-1.5-18.3-1.1
					c-4.2,0.2-8.4,0.8-12.5,2c-2.6,0.8-4.6-0.8-5.1-3.3c-0.1-1.6,0.9-3.1,2.5-3.7c2.7-0.7,5.4-1.3,8.2-1.8
					C37.3,32.1,41,31.8,43.8,31.6"/>
				<path class="st0" d="M43.7,51.7c-4.8,0-9.6,0.7-14.3,2c-1.5,0.3-3-0.4-3.5-1.8c-0.6-1.3-0.1-2.9,1.1-3.7c1-0.5,2.1-0.9,3.2-1.1
					c4.5-1.1,9.2-1.7,13.8-1.6c5.9,0,11.7,0.9,17.4,2.6c4,1.2,7.9,2.9,11.4,5.1c1.4,0.9,1.7,2.8,0.8,4.2c0,0.1-0.1,0.1-0.1,0.2
					c-0.9,1.3-2.7,1.6-4.1,0.8c-4.5-2.6-9.4-4.5-14.5-5.5C51.3,52.1,47.5,51.7,43.7,51.7"/>
				<path class="st0" d="M44.3,58.3C49.7,58.5,55,59.1,60,61c2.6,1,5.2,2.2,7.7,3.6c1.2,0.6,1.8,2,1.3,3.3c-0.2,0.4-0.4,0.7-0.7,0.9
					c-0.8,0.6-1.9,0.7-2.8,0.2c-3.3-2-6.9-3.5-10.7-4.4c-1.9-0.4-3.7-0.7-5.6-0.9c-2.3-0.2-4.6-0.2-6.9-0.2
					c-3.8,0.1-7.6,0.6-11.3,1.5c-1.6,0.4-3.2,0.2-3.6-1.9c-0.2-1.3,0.6-2.6,2-2.9c3.9-0.9,7.9-1.4,11.9-1.6
					C42.3,58.6,43.3,58.4,44.3,58.3"/>
			</g>
		</g>
	</g>
</g>
</svg>
