<?xml version="1.0" encoding="utf-8"?>
<!-- Generator: Adobe Illustrator 26.0.2, SVG Export Plug-In . SVG Version: 6.00 Build 0)  -->
<svg version="1.1" id="Laag_1" xmlns="http://www.w3.org/2000/svg" xmlns:xlink="http://www.w3.org/1999/xlink" x="0px" y="0px"
	 viewBox="0 0 100 99.4" style="enable-background:new 0 0 100 99.4;" xml:space="preserve">
<style type="text/css">
	.st0{fill:#4C453D;}
</style>
<g id="Laag_2_00000158738762906918203280000011121588674809774477_">
	<g id="Laag_1-2">
		<g>
			<g>
				<path class="st0" d="M80.6,39.4l-10,10L60.5,39.3l10-10L80.6,39.4 M60.1,60l-10,10.1L39.9,59.9l10.1-10L60.1,60 M59.9,39.4
					l-9.9,10L39.9,39.3l9.9-9.9L59.9,39.4 M39.4,39.4c-3.3,3.3-6.7,6.7-10.1,10l-10-10l10-10L39.4,39.4 M100,26.1
					C99.5,11.5,87.6,0,73,0H27C12.1,0,0,12.1,0,27v45.4c0,13.5,10,24.9,23.4,26.7c17.8,0.3,35.5,0.4,53.3,0
					c13-1.8,22.9-12.6,23.3-25.8C100.1,57.6,100.1,41.8,100,26.1"/>
			</g>
		</g>
	</g>
</g>
</svg>
