<?xml version="1.0" encoding="utf-8"?>
<!-- Generator: Adobe Illustrator 26.0.2, SVG Export Plug-In . SVG Version: 6.00 Build 0)  -->
<svg version="1.1" id="Laag_1" xmlns="http://www.w3.org/2000/svg" xmlns:xlink="http://www.w3.org/1999/xlink" x="0px" y="0px"
	 viewBox="0 0 100 99.4" style="enable-background:new 0 0 100 99.4;" xml:space="preserve">
<style type="text/css">
	.st0{fill:#4C453D;}
</style>
<g id="Laag_2_00000119113015038668419080000000300066322410747806_">
	<g id="Laag_1-2">
		<path class="st0" d="M82,43.8c-6.2-0.2-12.2-2-17.4-5.2c0,4.1,0,7.7,0,11.2c-0.1,5.4-0.1,10.7-0.4,16.1
			c-0.9,11.2-9.8,20.1-21,20.9C30.8,87.6,20.5,79.9,18,68.2C15.8,57,22.1,46,32.8,42.2C36.2,41,40,40.8,44,40v13.2
			c-3.9-0.1-7.5,0.2-10.2,3.5c-2.9,3.4-3.4,8.1-1.3,12.1c1.8,3.8,5.8,6,10,5.4c4.4-0.4,7.8-3.9,8.2-8.3c0.3-2.5,0.4-4.9,0.3-7.4
			C51,45,51,31.5,51,18v-4h13c1.5,10.1,7.4,16.1,18,17.6V43.8z M97.8,83.4c1.2-3.1,1.8-6.3,1.8-9.7c0.4-15.9,0.6-31.8,0-47.6
			c-0.1-3.5-0.7-7-1.9-10.3c-1.9-4.3-4.8-7.9-8.6-10.7c-3.1-2-6.5-3.6-10.1-4.6c-0.1,0-0.2-0.1-0.2-0.1c-0.7-0.2-1.4-0.3-2.1-0.4
			H23.2c-1.3,0.2-2.6,0.4-3.8,0.8l-1.3,0.4c-0.5,0.2-1.1,0.4-1.6,0.6C7.6,5.6,1.5,13.7,0.2,23.2c0,0.3,0,0.6-0.1,0.9
			C0,40.8-0.1,57.4,0.2,74c0,0.9,0.1,1.8,0.2,2.6c0,0.2,0.1,0.5,0.1,0.7s0.1,0.6,0.1,0.9C2.4,86.8,8.2,94,16.2,97.5
			c3.1,1.2,6.4,1.8,9.8,1.8c16.2,0.1,32.4,0.2,48.6-0.1C84.8,99,93.9,92.8,97.8,83.4"/>
	</g>
</g>
</svg>
