<svg xmlns="http://www.w3.org/2000/svg" viewBox="0 0 100 100"><defs><style>.cls-1{fill:#1d1d1b;}</style></defs><g id="Laag_2" data-name="Laag 2"><g id="Laag_1-2" data-name="Laag 1"><path class="cls-1" d="M39.48,56.23V39.08A1.86,1.86,0,0,1,41,37.23l2.22-.46,12.54-2.54c2.63-.53,5.26-1.07,7.89-1.58a39.82,39.82,0,0,1,4.47-.79,1.18,1.18,0,0,1,1.32.89,4.67,4.67,0,0,1,.14,1.06V56.06a7,7,0,0,1,0,.79,2.58,2.58,0,0,1-2,2.36c-1.44.32-2.88.63-4.32.91a20.52,20.52,0,0,0-4.71,1.44,7.8,7.8,0,0,0,3.36,14.86,18.24,18.24,0,0,0,4.87-.74,8.77,8.77,0,0,0,5.83-5,11.49,11.49,0,0,0,.89-4.85q0-12,0-24,0-11.41,0-22.83c0-.56,0-1.11-.05-1.67a2,2,0,0,0-2.14-2,12.42,12.42,0,0,0-1.81.22l-4.67.92L55.39,18.3,46.81,20c-3,.61-5.93,1.22-8.89,1.85a2.67,2.67,0,0,0-2.13,2.05,7,7,0,0,0-.2,1.77q0,18.66,0,37.3c0,.14,0,.27,0,.4a2.92,2.92,0,0,1-2.26,2.72c-1,.21-2,.42-3,.61A33.17,33.17,0,0,0,25.43,68a8.22,8.22,0,0,0-3.1,1.85,7.83,7.83,0,0,0,5.15,13.46,19.33,19.33,0,0,0,5.13-.74,8.86,8.86,0,0,0,5-3.49,9.88,9.88,0,0,0,1.81-5.82c0-5.66,0-11.33,0-17M76,100H25l-.27,0-3.56-.21a26.69,26.69,0,0,1-5.74-1A19.62,19.62,0,0,1,9,95.6,21.13,21.13,0,0,1,1.2,84.35a32.1,32.1,0,0,1-1.18-9Q0,50.75,0,26.19c0-1.61.06-3.21.21-4.81A33.58,33.58,0,0,1,1,16.49a20.34,20.34,0,0,1,6.8-11A21.57,21.57,0,0,1,16.1,1.08,34.25,34.25,0,0,1,25.1,0Q49.43,0,73.75,0c.63,0,1.27,0,1.91.06,1.26.06,2.52.11,3.77.25a36.72,36.72,0,0,1,4,.64,22.39,22.39,0,0,1,4.42,1.58,20.84,20.84,0,0,1,10.21,11,29.81,29.81,0,0,1,1.81,8.86c0,.45.07.91.1,1.36v52.1c0,.46-.07.91-.1,1.37a40.76,40.76,0,0,1-.57,5A20.5,20.5,0,0,1,94.4,92.49a21.25,21.25,0,0,1-9.66,6.21,32.25,32.25,0,0,1-7.5,1.2l-1.49.1"/></g></g></svg>