<svg xmlns="http://www.w3.org/2000/svg" xmlns:xlink="http://www.w3.org/1999/xlink" viewBox="0 0 100 99.39"><defs><style>.cls-1{fill:none;}.cls-2{clip-path:url(#clip-path);}.cls-3{fill:#1d1d1b;}</style><clipPath id="clip-path" transform="translate(0 0)"><rect class="cls-1" width="100" height="99.39"/></clipPath></defs><g id="Laag_2" data-name="Laag 2"><g id="Laag_1-2" data-name="Laag 1"><g class="cls-2"><path class="cls-3" d="M68.3,55.72a21.52,21.52,0,0,0,.28-2.21,16.83,16.83,0,0,0-.14-1.71A16.62,16.62,0,0,0,68,50a5.47,5.47,0,0,0-1.11-2,4.57,4.57,0,0,0-4.1-1.65,4.82,4.82,0,0,0-2.33.77,5.35,5.35,0,0,0-2.16,3.28,12.41,12.41,0,0,0-.33,2.1,9.45,9.45,0,0,0,.88,5,4.89,4.89,0,0,0,5.07,2.77,4.53,4.53,0,0,0,3-1.52,6.72,6.72,0,0,0,1.43-3M92.21,50H88.78c-.36,0-.4,0-.47-.4a3.85,3.85,0,0,0-2-2.78,5,5,0,0,0-3.09-.49,4.5,4.5,0,0,0-3.51,2.42,7.6,7.6,0,0,0-.9,3.19,18.43,18.43,0,0,0,0,2.78,7.74,7.74,0,0,0,.89,3,4.88,4.88,0,0,0,1.72,1.91,4.44,4.44,0,0,0,2.52.62,4.28,4.28,0,0,0,2.19-.63,4.43,4.43,0,0,0,1.58-1.77,5.79,5.79,0,0,0,.6-1.8.33.33,0,0,1,.37-.33h3.63c.22,0,.29.11.25.3a8.85,8.85,0,0,1-.25,1.16,18.64,18.64,0,0,1-.72,2A7.53,7.53,0,0,1,89,62.3a8.51,8.51,0,0,1-4.56,1.41,11,11,0,0,1-3.18-.27,8.36,8.36,0,0,1-3.49-1.79,8.7,8.7,0,0,1-2.1-2.78,12.31,12.31,0,0,1-1.14-5.58A14.31,14.31,0,0,1,75,49.9a9.21,9.21,0,0,1,3.35-5.33A8.21,8.21,0,0,1,81,43.24a11.1,11.1,0,0,1,4.62-.3A8.18,8.18,0,0,1,90.35,45a6.48,6.48,0,0,1,1.87,3c.15.51.26,1,.36,1.57.06.37,0,.41-.37.41m-20,7.63a9.17,9.17,0,0,1-2.51,4.19,7.25,7.25,0,0,1-2,1.27,8.85,8.85,0,0,1-4.28.59,8.28,8.28,0,0,1-2.79-.63,5.05,5.05,0,0,1-2.55-2.23.88.88,0,0,0-.2-.18.79.79,0,0,0-.08.26c0,.64,0,1.28,0,1.91,0,.35-.05.4-.38.4h-3.3c-.29,0-.34,0-.35-.33V37.63c0-.41,0-.82,0-1.22,0-.1,0-.2,0-.3h-.1l-.42.77-2.31,4.25c-.61,1.14-1.22,2.29-1.84,3.43S47.72,47,47,48.29l-1.83,3.4-1.84,3.38c-.55,1-1.09,2-1.65,3l-1.65,3.05c-.29.54-.59,1.08-.87,1.62a.58.58,0,0,1-.58.36H7.72a1.32,1.32,0,0,1-.33-.08,3.19,3.19,0,0,1,.11-.33l1.23-2.29,1.67-3.07,1.44-2.66,1.64-3L14.94,49l1.68-3.09,1.63-3,1.48-2.72,1.64-3.06c.2-.36.38-.73.6-1.08a.67.67,0,0,1,.36-.22,2.26,2.26,0,0,1,.45,0H57.63c.36,0,.4,0,.4.39v9.37a.89.89,0,0,0,.09.26,1.08,1.08,0,0,0,.19-.17A6.42,6.42,0,0,1,61,43.46,8.23,8.23,0,0,1,71.28,47a12.53,12.53,0,0,1,1.5,5.68,14.3,14.3,0,0,1-.6,5M100,26.08A27,27,0,0,0,73,0H27A27,27,0,0,0,0,27V72.39A27,27,0,0,0,23.41,99.13c17.75.3,35.51.39,53.25,0A27,27,0,0,0,100,73.37q.09-23.64,0-47.29" transform="translate(0 0)"/></g></g></g></svg>