<svg xmlns="http://www.w3.org/2000/svg" viewBox="0 0 100 100"><defs><style>.cls-1{fill:#1d1d1b;}</style></defs><g id="Laag_2" data-name="Laag 2"><g id="Laag_1-2" data-name="Laag 1"><path class="cls-1" d="M99.89,74.47q.23-24.42,0-48.86c0-.51,0-1-.07-1.52A27,27,0,0,0,78.92.66L77.68.42A27.56,27.56,0,0,0,73.29,0H26.7c-.56,0-1.12,0-1.67.08s-1.72.23-2.72.34a27,27,0,0,0-22.06,23l0,.57C-.07,41-.09,57.86.25,74.77a29.61,29.61,0,0,0,.31,3.7,27,27,0,0,0,23,21.29c.69.08,1.37.13,2.06.17l.87,0,.93,0h2.85c3.56-.06,7.13-.35,10.64-.28V65h-12V50h12.7c0-5-.23-9.87.05-14.66.47-8,4.75-13.78,12-15.89,5.66-1.65,11.9-1.24,18.24-1.77V32.43c-3,0-5.62-.12-8.23,0-3.92.21-6.47,2-6.7,5-.3,4-.08,8-.08,12.53h14c-.79,5.3-1.48,10-2.23,15H56.92V99.72c6.06,0,11.87.11,17.67,0a26.5,26.5,0,0,0,4.68-.52,27,27,0,0,0,20.37-23c0-.56.09-1.12.1-1.7"/></g></g></svg>