<svg xmlns="http://www.w3.org/2000/svg" viewBox="0 0 100 99.38"><defs><style>.cls-1{fill:#1d1d1b;}</style></defs><g id="Laag_2" data-name="Laag 2"><g id="Laag_1-2" data-name="Laag 1"><path class="cls-1" d="M70,25.47a4.49,4.49,0,0,0-4.4,4.29,4.39,4.39,0,0,0,4.42,4.55,4.32,4.32,0,0,0,4.37-4.56A4.42,4.42,0,0,0,70,25.47M31.14,49.6A19.08,19.08,0,1,0,50.5,30.72,19.1,19.1,0,0,0,31.14,49.6M20.05,50c0-5.64-.26-11.29.08-16.91a13.89,13.89,0,0,1,13.48-13c11.15-.35,22.33-.32,33.48,0,7.61.24,12.58,4.54,13,12.07.6,11.87.59,23.8,0,35.67-.35,7.3-4.71,11.65-12,12-12,.54-24,.53-36,0-7.2-.34-11.2-5.26-12-12.46A19.61,19.61,0,0,1,20,65.21q0-7.6,0-15.21h0"/><path class="cls-1" d="M62.55,49.67A12.3,12.3,0,0,1,50.17,62.08,12.39,12.39,0,1,1,62.55,49.67"/><path class="cls-1" d="M86.74,68c-.54,10.49-8,17.77-18.53,18.27-11.69.56-23.44.62-35.13.07C21,85.75,13.85,77.94,13.33,65.78c-.24-5.37,0-10.76,0-16.15s-.23-10.78.05-16.15c.62-12,7.8-19.86,19.62-20.4,11.48-.52,23-.53,34.52,0s18.76,7.68,19.34,19.2A353.86,353.86,0,0,1,86.74,68M100,73.37q.09-23.64,0-47.29A27,27,0,0,0,73,0H27A27,27,0,0,0,0,27V72.39A27,27,0,0,0,23.41,99.13c17.75.3,35.51.39,53.25,0A27,27,0,0,0,100,73.37"/></g></g></svg>