<svg xmlns="http://www.w3.org/2000/svg" xmlns:xlink="http://www.w3.org/1999/xlink" viewBox="0 0 406.34 406.34"><defs><style>.cls-1{fill:none;}.cls-2{clip-path:url(#clip-path);}.cls-3{fill:#1b1b1a;}.cls-4{fill:#fff;}</style><clipPath id="clip-path" transform="translate(0 0)"><rect class="cls-1" width="406.34" height="406.34"/></clipPath></defs><g id="Laag_2" data-name="Laag 2"><g id="Laag_1-2" data-name="Laag 1"><g class="cls-2"><path class="cls-3" d="M379.09,304.74c56.1-97.16,22.81-221.4-74.35-277.49S83.34,4.44,27.25,101.6,4.44,323,101.6,379.09,323,401.9,379.09,304.74" transform="translate(0 0)"/><path class="cls-4" d="M351.85,289a171.68,171.68,0,1,0-234.52,62.84A171.67,171.67,0,0,0,351.85,289" transform="translate(0 0)"/><path class="cls-3" d="M326.58,274.42a142.5,142.5,0,1,0-194.66,52.16,142.48,142.48,0,0,0,194.66-52.16" transform="translate(0 0)"/><path class="cls-4" d="M118.53,313.78a18,18,0,1,0,31.17,18l69-119.51a18,18,0,1,0-31.17-18Z" transform="translate(0 0)"/></g></g></g></svg>