<svg xmlns="http://www.w3.org/2000/svg" xmlns:xlink="http://www.w3.org/1999/xlink" viewBox="0 0 98.96 99"><defs><style>.cls-1{fill:none;}.cls-2{clip-path:url(#clip-path);}.cls-3{fill:#1d1d1b;}</style><clipPath id="clip-path" transform="translate(0 0)"><rect class="cls-1" width="98.96" height="99"/></clipPath></defs><g id="Laag_2" data-name="Laag 2"><g id="Laag_1-2" data-name="Laag 1"><g class="cls-2"><path class="cls-3" d="M45.22,79.82h8.43V60.26H45.22ZM59.35,39.53,70,29.33l-6-5.61L53.82,33.44V19.18H45.1V34l-10-10.25L29,29.37,39.57,39.5l-.13.22H24.83v8.37H39.76L29.3,58.28l6.08,6.1,13.95-14.7c.5.48.76.71,1,1L63.4,63.5c.31.31.58.74,1.09.21,1.71-1.8,3.44-3.58,5.21-5.42L59.32,48.17l.07-.26H74.18V39.53ZM49.41,0H78A20.46,20.46,0,0,1,92.78,5.66a19.22,19.22,0,0,1,5.9,11.55,35.83,35.83,0,0,1,.26,4.63q0,28.05,0,56.1a20.87,20.87,0,0,1-3.32,11.91,19.51,19.51,0,0,1-14,8.86,27.4,27.4,0,0,1-4,.27q-28.23,0-56.47,0a20.82,20.82,0,0,1-13.5-4.35A18.73,18.73,0,0,1,.37,82,86.5,86.5,0,0,1,0,71.9q0-16.5,0-33c0-6.66,0-13.33.13-20A18.75,18.75,0,0,1,4.71,7.28,20.3,20.3,0,0,1,17.59.17,19,19,0,0,1,20.79,0H49.41" transform="translate(0 0)"/></g></g></g></svg>