<svg xmlns="http://www.w3.org/2000/svg" viewBox="0 0 406.35 406.28"><g id="Laag_2" data-name="Laag 2"><g id="Laag_1-2" data-name="Laag 1"><path d="M258.56,177.17c0-14.35.21-29.13-.1-43.9a87.18,87.18,0,0,0-2.2-19.29c-5.76-23-22.82-37.23-47.71-40.64-27.32-3.74-54.83,15.52-57.62,42-2.12,20.15-1.79,40.54-2.59,61.84Zm39.12,12.63q-.87,68.22-1.88,136.44c-.12,8-1.86,9.39-9.72,9.83-37.61,2.12-75.23,3.53-112.9,1.82-18.8-.85-37.6-2-56.39-3-5.09-.29-6.64-2.16-6.67-7.83q-.2-50-.35-100,0-19,0-38c0-10.46,0-10.46,10.53-12.62,0-3.15-.13-6.44,0-9.72.82-18.79.3-37.76,2.85-56.32,5.84-42.65,45.25-68.73,85.11-65.8,36.92,2.72,65.58,25.55,74.67,60,3.19,12.06,3.48,25,4.2,37.55.67,11.61.14,23.29.14,35.23,10.41,1.93,10.52,1.93,10.39,12.41m108.67,13.52C406.47,91.26,315.76.17,203.89,0,91.45-.17.25,90.42,0,202.51-.25,315.06,90.6,406.23,203.05,406.28a202.86,202.86,0,0,0,203.3-203"/></g></g></svg>