<?xml version="1.0" encoding="utf-8"?>
<!-- Generator: Adobe Illustrator 26.0.2, SVG Export Plug-In . SVG Version: 6.00 Build 0)  -->
<svg version="1.1" id="Laag_1" xmlns="http://www.w3.org/2000/svg" xmlns:xlink="http://www.w3.org/1999/xlink" x="0px" y="0px"
	 viewBox="0 0 406.4 406.3" style="enable-background:new 0 0 406.4 406.3;" xml:space="preserve">
<style type="text/css">
	.st0{fill:#E5AD3E;}
</style>
<g id="Laag_2_00000127760218200148486850000003220246174991518906_">
	<g id="Laag_1-2">
		<path class="st0" d="M297.7,189.8c-0.6,45.5-1.2,91-1.9,136.4c-0.1,8-1.9,9.4-9.7,9.8c-37.6,2.1-75.2,3.5-112.9,1.8
			c-18.8-0.9-37.6-2-56.4-3c-5.1-0.3-6.6-2.2-6.7-7.8c-0.1-33.3-0.2-66.7-0.3-100c0-12.7,0-25.3,0-38c0-9.2,0-10.3,7.2-11.9h141.6
			c0-14.4,0.2-43.3-0.1-58.1c0-6.5-0.8-13-2.2-19.3c-5.8-23-22.8-37.2-47.7-40.6c-27.3-3.7-54.8,15.5-57.6,42
			c-1,9.4,0.7-0.8-0.7,11.9l-28.2-1c1.9-20.2,1-14.3,1.2-15.8c5.8-42.7,45.2-68.7,85.1-65.8c36.9,2.7,65.6,25.6,74.7,60
			c3.2,12.1,3.5,25,4.2,37.6c0.7,11.6,0.1,37.5,0.1,49.4C297.8,179.3,297.9,179.3,297.7,189.8 M406.4,203.3
			C406.5,91.3,315.8,0.2,203.9,0C91.4-0.2,0.2,90.4,0,202.5c-0.2,112.6,90.6,203.7,203.1,203.8c112,0.2,203.1-90.4,203.3-202.4
			C406.4,203.7,406.4,203.5,406.4,203.3"/>
	</g>
</g>
</svg>
