<svg xmlns="http://www.w3.org/2000/svg" xmlns:xlink="http://www.w3.org/1999/xlink" viewBox="0 0 406.34 406.34"><defs><style>.cls-1{fill:none;}.cls-2{clip-path:url(#clip-path);}.cls-3{fill:#1b1b1a;}.cls-4{fill:#fff;}</style><clipPath id="clip-path" transform="translate(0 0)"><rect class="cls-1" width="406.34" height="406.34"/></clipPath></defs><g id="Laag_2" data-name="Laag 2"><g id="Laag_1-2" data-name="Laag 1"><g class="cls-2"><path class="cls-3" d="M379.09,304.74c56.1-97.16,22.81-221.4-74.35-277.49S83.34,4.44,27.25,101.6,4.44,323,101.6,379.09,323,401.9,379.09,304.74" transform="translate(0 0)"/><path class="cls-4" d="M49.4,185.17a18,18,0,0,0,0,36H356.94a18,18,0,0,0,0-36Z" transform="translate(0 0)"/><path class="cls-4" d="M185.17,356.94a18,18,0,0,0,36,0V49.4a18,18,0,0,0-36,0Z" transform="translate(0 0)"/></g></g></g></svg>