<svg xmlns="http://www.w3.org/2000/svg" xmlns:xlink="http://www.w3.org/1999/xlink" viewBox="0 0 406.34 406.34"><defs><style>.cls-1{fill:none;}.cls-2{clip-path:url(#clip-path);}.cls-3{fill:#1b1b1a;}.cls-4{fill:#fff;}</style><clipPath id="clip-path" transform="translate(0 0)"><rect class="cls-1" width="406.34" height="406.34"/></clipPath></defs><g id="Laag_2" data-name="Laag 2"><g id="Laag_1-2" data-name="Laag 1"><g class="cls-2"><path class="cls-3" d="M379.09,304.74c56.1-97.16,22.81-221.4-74.35-277.49S83.34,4.44,27.25,101.6,4.44,323,101.6,379.09,323,401.9,379.09,304.74" transform="translate(0 0)"/><rect class="cls-4" x="128.17" y="128.17" width="150" height="150" rx="13.5"/><path class="cls-4" d="M83.42,305.71a12.17,12.17,0,0,0,17.21,17.21L326.34,97.21A12.17,12.17,0,1,0,309.13,80Z" transform="translate(0 0)"/><path class="cls-4" d="M309.13,322.92a12.17,12.17,0,1,0,17.21-17.21L100.63,80A12.17,12.17,0,0,0,83.42,97.21Z" transform="translate(0 0)"/></g></g></g></svg>