<svg xmlns="http://www.w3.org/2000/svg" xmlns:xlink="http://www.w3.org/1999/xlink" viewBox="0 0 100 99.38"><defs><style>.cls-1{fill:none;}.cls-2{clip-path:url(#clip-path);}.cls-3{fill:#1d1d1b;}</style><clipPath id="clip-path" transform="translate(0)"><rect class="cls-1" width="100" height="99.39"/></clipPath></defs><g id="Laag_2" data-name="Laag 2"><g id="Laag_1-2" data-name="Laag 1"><g class="cls-2"><path class="cls-3" d="M88,65.15a11.23,11.23,0,0,1-8,3.09q-14.19,0-28.39,0a2.29,2.29,0,0,1-2.51-2.42c0-.21,0-.43,0-.65,0-9.79,0-19.59,0-29.39A3.16,3.16,0,0,1,51,32.62,17,17,0,0,1,60,31a19,19,0,0,1,10.26,3.83,18.74,18.74,0,0,1,7.06,10.86l.06.12c.59-.1,1.16-.22,1.73-.29A11.27,11.27,0,0,1,91.45,54.3,11,11,0,0,1,88,65.15M46.33,57.72c0,1.83-.17,3.66-.33,5.48-.12,1.46-.32,2.91-.52,4.36a.94.94,0,0,1-1.87-.1c-.56-5-.83-10.08-.89-15.14.13-3.31.24-6.63.42-9.93.09-1.73.3-3.45.47-5.17a.93.93,0,0,1,.94-.95,1,1,0,0,1,1,.92c.08.82.15,1.65.21,2.48.16,2.14.39,4.28.45,6.42q.18,5.82.17,11.63m-5.61-2c-.07,2.76-.25,5.52-.43,8.27-.07,1.15-.24,2.28-.38,3.42a1,1,0,0,1-.93.81.9.9,0,0,1-1-.82c-.15-1.19-.31-2.38-.38-3.57-.2-3.24-.34-6.48-.52-9.94.19-3.2.38-6.61.59-10,.06-1,.18-2,.3-3a.92.92,0,0,1,1-.83,1,1,0,0,1,.94.85,94,94,0,0,1,.81,14.8m-5.84-1.4c-.07,3.47-.35,6.94-.56,10.42-.06.91-.2,1.81-.3,2.72a1,1,0,0,1-.93.93,1,1,0,0,1-1-1c-.13-1.27-.31-2.54-.38-3.82-.2-3.32-.36-6.65-.53-10,.17-3.32.33-6.63.53-9.94.07-1.28.24-2.55.38-3.82a1,1,0,0,1,1-1,1.09,1.09,0,0,1,.95,1,99.46,99.46,0,0,1,.84,14.43m-5.8,3.94c-.12,3.06-.5,6.1-.77,9.14a.93.93,0,0,1-1,.83.88.88,0,0,1-.93-.79c-.17-1.45-.38-2.9-.48-4.36-.17-2.69-.27-5.38-.42-8.3.17-2.85.32-5.93.52-9,.07-1,.23-2.08.38-3.11a1,1,0,0,1,.95-.85,1,1,0,0,1,1,.91,85.87,85.87,0,0,1,.76,15.53M23.19,60.5c-.08,1.86-.35,3.71-.54,5.56,0,.46-.09.93-.14,1.39a1,1,0,0,1-1,1c-.55,0-.86-.28-.94-.93a84,84,0,0,1-.8-10.86A36.45,36.45,0,0,1,20.52,49c.15-.74.5-1.06,1.12-1a.79.79,0,0,1,.79.64,51,51,0,0,1,.75,5.06c.13,2.25.1,4.52,0,6.78m-5.66-4.78c0,2.12-.07,4.25-.21,6.36-.11,1.49-.37,3-.6,4.45a.92.92,0,0,1-1,.85,1,1,0,0,1-.92-.94,56.13,56.13,0,0,1,0-18.53,1,1,0,0,1,1-.85.94.94,0,0,1,.95.79c.22,1.3.44,2.62.58,3.94a36.84,36.84,0,0,1,.23,3.93m-5.71,1.54A22.26,22.26,0,0,1,11,63c-.06.22-.09.46-.15.68a.92.92,0,0,1-1,.7.84.84,0,0,1-.9-.71,26.15,26.15,0,0,1-.63-8.9c.12-1.14.32-2.27.52-3.39.12-.7.48-1,1-1s.87.28,1,.89a23,23,0,0,1,.84,6M100,26.08A27,27,0,0,0,73,0H27A27,27,0,0,0,0,27V72.39A27,27,0,0,0,23.41,99.13c17.75.3,35.51.39,53.25,0A27,27,0,0,0,100,73.37q.09-23.64,0-47.29" transform="translate(0)"/></g></g></g></svg>