<svg xmlns="http://www.w3.org/2000/svg" xmlns:xlink="http://www.w3.org/1999/xlink" viewBox="0 0 101.17 101"><defs><style>.cls-1{fill:none;}.cls-2{clip-path:url(#clip-path);}.cls-3{fill:#1d1d1b;}</style><clipPath id="clip-path" transform="translate(0)"><rect class="cls-1" width="101.17" height="101"/></clipPath></defs><g id="Laag_2" data-name="Laag 2"><g id="Laag_1-2" data-name="Laag 1"><g class="cls-2"><path class="cls-3" d="M50.51,90.35A39.85,39.85,0,1,0,10.69,50.62,39.83,39.83,0,0,0,50.51,90.35M15.82,0H85.46a5.8,5.8,0,0,0,.59.19c1,.19,2,.3,3,.57a16.1,16.1,0,0,1,8.8,6.09A14.08,14.08,0,0,1,101,14.69c.17,4,0,8,0,12V77c0,3.28.34,6.62-.09,9.85a15.69,15.69,0,0,1-8.6,12.24A38.71,38.71,0,0,1,87.23,101H14s-.07-.14-.11-.14a16.39,16.39,0,0,1-7.59-3.48A16.58,16.58,0,0,1,.07,84.53c-.13-3.34,0-6.7,0-10Q0,48.8.05,23.12a54.1,54.1,0,0,1,.44-9.37C1.74,6.81,6.07,2.47,12.84.59c1-.27,2-.4,3-.59" transform="translate(0)"/><path class="cls-3" d="M43.85,31.6c3.83.22,6.83.24,9.79.6a64,64,0,0,1,19.57,5q2.34,1.06,4.59,2.28a3.69,3.69,0,0,1,1.87,4,3.65,3.65,0,0,1-3.59,3,3.55,3.55,0,0,1-2-.56,49.87,49.87,0,0,0-15.3-5.48A73.26,73.26,0,0,0,40.5,39.29a51.56,51.56,0,0,0-12.49,2c-2.64.8-4.6-.75-5.06-3.28a3.74,3.74,0,0,1,2.47-3.69,83.15,83.15,0,0,1,8.2-1.76c3.66-.51,7.36-.72,10.23-1" transform="translate(0)"/><path class="cls-3" d="M43.72,51.67a54.68,54.68,0,0,0-14.28,2,3.07,3.07,0,0,1-3.54-1.79A3,3,0,0,1,27,48.19a14.49,14.49,0,0,1,3.24-1.14,53.68,53.68,0,0,1,13.81-1.63,59.29,59.29,0,0,1,17.37,2.63,45.43,45.43,0,0,1,11.41,5.14,3,3,0,0,1,.69,4.32,3.1,3.1,0,0,1-4.06.81A45.16,45.16,0,0,0,55,52.84a58.6,58.6,0,0,0-11.28-1.17" transform="translate(0)"/><path class="cls-3" d="M44.28,58.33c5.38.2,10.7.73,15.76,2.66a66.38,66.38,0,0,1,7.7,3.58,2.47,2.47,0,0,1,.52,4.2,2.74,2.74,0,0,1-2.75.25A35.55,35.55,0,0,0,54.85,64.6a37.12,37.12,0,0,0-5.64-.86c-2.28-.19-4.58-.22-6.87-.22A54.29,54.29,0,0,0,31,65c-1.65.36-3.17.18-3.56-1.9a2.55,2.55,0,0,1,1.95-2.87,70.12,70.12,0,0,1,11.89-1.63c1,0,2-.16,3-.25" transform="translate(0)"/></g></g></g></svg>