<svg xmlns="http://www.w3.org/2000/svg" xmlns:xlink="http://www.w3.org/1999/xlink" viewBox="0 0 100 99.39"><defs><style>.cls-1{fill:none;}.cls-2{clip-path:url(#clip-path);}.cls-3{fill:#1d1d1b;}</style><clipPath id="clip-path" transform="translate(0 0)"><rect class="cls-1" width="100" height="99.39"/></clipPath></defs><g id="Laag_2" data-name="Laag 2"><g id="Laag_1-2" data-name="Laag 1"><g class="cls-2"><path class="cls-3" d="M80.64,39.4l-10,10L60.47,39.31l10-10L80.64,39.4M60.09,60l-10,10.05L39.9,59.94,50,49.9,60.09,60m-.2-20.56L50,49.4,39.88,39.31l9.93-9.91L59.89,39.48m-20.45-.06c-3.35,3.33-6.74,6.72-10.06,10l-10-10L29.41,29.39l10,10M100,26.08A27,27,0,0,0,73,0H27A27,27,0,0,0,0,27V72.39A27,27,0,0,0,23.41,99.13c17.75.3,35.51.39,53.25,0A27,27,0,0,0,100,73.37q.09-23.64,0-47.29" transform="translate(0 0)"/></g></g></g></svg>