<svg xmlns="http://www.w3.org/2000/svg" viewBox="0 0 100 99.41"><defs><style>.cls-1{fill:#1d1d1b;}</style></defs><g id="Laag_2" data-name="Laag 2"><g id="Laag_1-2" data-name="Laag 1"><path class="cls-1" d="M82,43.83A36.59,36.59,0,0,1,64.56,38.6c0,4.11,0,7.65,0,11.19-.09,5.36-.08,10.72-.41,16.07a22.81,22.81,0,0,1-21,20.93C30.84,87.62,20.45,79.94,18,68.17a22.88,22.88,0,0,1,14.81-26C36.23,41.05,40,40.78,44,40V53.19c-3.9-.13-7.51.23-10.24,3.52a10.85,10.85,0,0,0-1.34,12.06,9.69,9.69,0,0,0,10,5.42,9.17,9.17,0,0,0,8.24-8.3,52.16,52.16,0,0,0,.28-7.4Q51,38.21,51,18V14h13c1.49,10.06,7.37,16.1,18,17.63ZM97.8,83.4a28.21,28.21,0,0,0,1.85-9.65c.37-15.87.56-31.77,0-47.63a32.28,32.28,0,0,0-1.91-10.28A27.15,27.15,0,0,0,89.16,5.11,37.6,37.6,0,0,0,79.06.49a.89.89,0,0,1-.25-.14C78.14.2,77.45.1,76.75,0H23.25a25.67,25.67,0,0,0-3.82.81l-1.33.44c-.55.17-1.09.37-1.62.58A27,27,0,0,0,.25,23.25c0,.31,0,.61-.06.92C0,40.76-.1,57.37.15,74c0,.89.07,1.78.16,2.64,0,.24.07.48.11.72s.09.59.14.88A27.06,27.06,0,0,0,16.22,97.48,28,28,0,0,0,26,99.28c16.21.12,32.43.25,48.64-.07A25.72,25.72,0,0,0,97.8,83.4"/></g></g></svg>