<svg xmlns="http://www.w3.org/2000/svg" viewBox="0 0 100 99.38"><defs><style>.cls-1{fill:#1d1d1b;}</style></defs><g id="Laag_2" data-name="Laag 2"><g id="Laag_1-2" data-name="Laag 1"><path class="cls-1" d="M42.82,39.78l17.48,10c-5.9,3.58-11.45,7-17.48,10.61Z"/><path class="cls-1" d="M81.47,60.44c-.48,6.8-6.21,11.85-13.09,12.21-6.17.33-12.37.07-18.56.07v0c-6,0-12,.27-17.94-.06-8.51-.47-13.74-6.2-13.88-14.75-.1-5.45-.12-10.92,0-16.37.11-7.71,5.76-14.09,13.42-14.25,12.47-.27,25-.13,37.44.19A12.35,12.35,0,0,1,81.1,38.56a134.36,134.36,0,0,1,.37,21.88M72.82,0H27A27,27,0,0,0,.27,23.4c0,.39-.06.78-.07,1.18C0,41-.09,57.34.15,73.71c0,.87.07,1.73.16,2.57A27,27,0,0,0,21.15,98.74a28.67,28.67,0,0,0,5,.46c15.58.08,31.17-.35,46.74.18.19,0,.39,0,.59,0A27,27,0,0,0,96.58,85.54l.28-.53c.08-.15.14-.3.22-.45a28.44,28.44,0,0,0,2.61-11.32c.47-15.64.36-31.32,0-47a30.93,30.93,0,0,0-1.32-8.44A27,27,0,0,0,73,0"/></g></g></svg>